# Blender v2.79 (sub 0) OBJ File: 'torus.blend'
# www.blender.org
mtllib torus.mtl
o Torus
v 1.250000 0.000000 0.000000
v 1.125000 0.216506 0.000000
v 0.875000 0.216506 0.000000
v 0.750000 0.000000 0.000000
v 0.875000 -0.216506 0.000000
v 1.125000 -0.216506 0.000000
v 1.207407 0.000000 -0.323524
v 1.086667 0.216506 -0.291171
v 0.845185 0.216506 -0.226467
v 0.724444 0.000000 -0.194114
v 0.845185 -0.216506 -0.226467
v 1.086667 -0.216506 -0.291171
v 1.082532 0.000000 -0.625000
v 0.974279 0.216506 -0.562500
v 0.757772 0.216506 -0.437500
v 0.649519 0.000000 -0.375000
v 0.757772 -0.216506 -0.437500
v 0.974279 -0.216506 -0.562500
v 0.883883 0.000000 -0.883884
v 0.795495 0.216506 -0.795495
v 0.618718 0.216506 -0.618719
v 0.530330 0.000000 -0.530330
v 0.618718 -0.216506 -0.618719
v 0.795495 -0.216506 -0.795495
v 0.625000 0.000000 -1.082532
v 0.562500 0.216506 -0.974279
v 0.437500 0.216506 -0.757772
v 0.375000 0.000000 -0.649519
v 0.437500 -0.216506 -0.757772
v 0.562500 -0.216506 -0.974279
v 0.323524 0.000000 -1.207407
v 0.291171 0.216506 -1.086667
v 0.226467 0.216506 -0.845185
v 0.194114 0.000000 -0.724444
v 0.226467 -0.216506 -0.845185
v 0.291171 -0.216506 -1.086667
v 0.000000 0.000000 -1.250000
v 0.000000 0.216506 -1.125000
v 0.000000 0.216506 -0.875000
v 0.000000 0.000000 -0.750000
v 0.000000 -0.216506 -0.875000
v 0.000000 -0.216506 -1.125000
v -0.323524 0.000000 -1.207407
v -0.291171 0.216506 -1.086667
v -0.226467 0.216506 -0.845185
v -0.194114 0.000000 -0.724444
v -0.226467 -0.216506 -0.845185
v -0.291171 -0.216506 -1.086667
v -0.625000 0.000000 -1.082532
v -0.562500 0.216506 -0.974279
v -0.437500 0.216506 -0.757772
v -0.375000 0.000000 -0.649519
v -0.437500 -0.216506 -0.757772
v -0.562500 -0.216506 -0.974279
v -0.883884 0.000000 -0.883883
v -0.795495 0.216506 -0.795495
v -0.618719 0.216506 -0.618718
v -0.530330 0.000000 -0.530330
v -0.618719 -0.216506 -0.618718
v -0.795495 -0.216506 -0.795495
v -1.082532 0.000000 -0.625000
v -0.974278 0.216506 -0.562500
v -0.757772 0.216506 -0.437500
v -0.649519 0.000000 -0.375000
v -0.757772 -0.216506 -0.437500
v -0.974278 -0.216506 -0.562500
v -1.207407 0.000000 -0.323524
v -1.086667 0.216506 -0.291171
v -0.845185 0.216506 -0.226467
v -0.724444 0.000000 -0.194114
v -0.845185 -0.216506 -0.226467
v -1.086667 -0.216506 -0.291171
v -1.250000 0.000000 -0.000000
v -1.125000 0.216506 -0.000000
v -0.875000 0.216506 -0.000000
v -0.750000 0.000000 -0.000000
v -0.875000 -0.216506 -0.000000
v -1.125000 -0.216506 -0.000000
v -1.207407 0.000000 0.323524
v -1.086667 0.216506 0.291171
v -0.845185 0.216506 0.226467
v -0.724444 0.000000 0.194114
v -0.845185 -0.216506 0.226467
v -1.086667 -0.216506 0.291171
v -1.082532 0.000000 0.625000
v -0.974279 0.216506 0.562500
v -0.757772 0.216506 0.437500
v -0.649519 0.000000 0.375000
v -0.757772 -0.216506 0.437500
v -0.974279 -0.216506 0.562500
v -0.883884 0.000000 0.883883
v -0.795495 0.216506 0.795495
v -0.618719 0.216506 0.618718
v -0.530330 0.000000 0.530330
v -0.618719 -0.216506 0.618718
v -0.795495 -0.216506 0.795495
v -0.625000 0.000000 1.082532
v -0.562500 0.216506 0.974279
v -0.437500 0.216506 0.757772
v -0.375000 0.000000 0.649519
v -0.437500 -0.216506 0.757772
v -0.562500 -0.216506 0.974279
v -0.323524 0.000000 1.207407
v -0.291172 0.216506 1.086666
v -0.226467 0.216506 0.845185
v -0.194115 0.000000 0.724444
v -0.226467 -0.216506 0.845185
v -0.291172 -0.216506 1.086666
v 0.000000 0.000000 1.250000
v 0.000000 0.216506 1.125000
v 0.000000 0.216506 0.875000
v 0.000000 0.000000 0.750000
v 0.000000 -0.216506 0.875000
v 0.000000 -0.216506 1.125000
v 0.323523 0.000000 1.207407
v 0.291171 0.216506 1.086667
v 0.226466 0.216506 0.845185
v 0.194114 0.000000 0.724444
v 0.226466 -0.216506 0.845185
v 0.291171 -0.216506 1.086667
v 0.625000 0.000000 1.082532
v 0.562500 0.216506 0.974279
v 0.437500 0.216506 0.757772
v 0.375000 0.000000 0.649519
v 0.437500 -0.216506 0.757772
v 0.562500 -0.216506 0.974279
v 0.883883 0.000000 0.883884
v 0.795495 0.216506 0.795496
v 0.618718 0.216506 0.618719
v 0.530330 0.000000 0.530330
v 0.618718 -0.216506 0.618719
v 0.795495 -0.216506 0.795496
v 1.082532 0.000000 0.625000
v 0.974279 0.216506 0.562500
v 0.757772 0.216506 0.437500
v 0.649519 0.000000 0.375000
v 0.757772 -0.216506 0.437500
v 0.974279 -0.216506 0.562500
v 1.207407 0.000000 0.323523
v 1.086667 0.216506 0.291171
v 0.845185 0.216506 0.226466
v 0.724444 0.000000 0.194114
v 0.845185 -0.216506 0.226466
v 1.086667 -0.216506 0.291171
vn 0.8605 0.4968 -0.1133
vn 0.0000 1.0000 0.0000
vn -0.8605 0.4968 0.1133
vn -0.8605 -0.4968 0.1133
vn 0.0000 -1.0000 -0.0000
vn 0.8605 -0.4968 -0.1133
vn 0.8018 0.4968 -0.3321
vn -0.8018 0.4968 0.3321
vn -0.8018 -0.4968 0.3321
vn 0.8018 -0.4968 -0.3321
vn 0.6885 0.4968 -0.5283
vn -0.6885 0.4968 0.5283
vn -0.6885 -0.4968 0.5283
vn 0.6885 -0.4968 -0.5283
vn 0.5283 0.4968 -0.6885
vn -0.5283 0.4968 0.6885
vn -0.5283 -0.4968 0.6885
vn 0.5283 -0.4968 -0.6885
vn 0.3321 0.4968 -0.8018
vn -0.3321 0.4968 0.8018
vn -0.3321 -0.4968 0.8018
vn 0.3321 -0.4968 -0.8018
vn 0.1133 0.4968 -0.8605
vn -0.1133 0.4968 0.8605
vn -0.1133 -0.4968 0.8605
vn 0.1133 -0.4968 -0.8605
vn -0.1133 0.4968 -0.8605
vn 0.1133 0.4968 0.8605
vn 0.1133 -0.4968 0.8605
vn -0.1133 -0.4968 -0.8605
vn -0.3321 0.4968 -0.8018
vn 0.3321 0.4968 0.8018
vn 0.3321 -0.4968 0.8018
vn -0.3321 -0.4968 -0.8018
vn -0.5283 0.4968 -0.6885
vn 0.5283 0.4968 0.6885
vn 0.5283 -0.4968 0.6885
vn -0.5283 -0.4968 -0.6885
vn -0.6885 0.4968 -0.5283
vn 0.6885 0.4968 0.5283
vn 0.6885 -0.4968 0.5283
vn -0.6885 -0.4968 -0.5283
vn -0.8018 0.4968 -0.3321
vn 0.8018 0.4968 0.3321
vn 0.8018 -0.4968 0.3321
vn -0.8018 -0.4968 -0.3321
vn -0.8605 0.4968 -0.1133
vn 0.8605 0.4968 0.1133
vn 0.8605 -0.4968 0.1133
vn -0.8605 -0.4968 -0.1133
usemtl None
s off
f 1//1 7//1 8//1 2//1
f 2//2 8//2 9//2 3//2
f 3//3 9//3 10//3 4//3
f 4//4 10//4 11//4 5//4
f 5//5 11//5 12//5 6//5
f 6//6 12//6 7//6 1//6
f 7//7 13//7 14//7 8//7
f 8//2 14//2 15//2 9//2
f 9//8 15//8 16//8 10//8
f 10//9 16//9 17//9 11//9
f 11//5 17//5 18//5 12//5
f 12//10 18//10 13//10 7//10
f 13//11 19//11 20//11 14//11
f 14//2 20//2 21//2 15//2
f 15//12 21//12 22//12 16//12
f 16//13 22//13 23//13 17//13
f 17//5 23//5 24//5 18//5
f 18//14 24//14 19//14 13//14
f 19//15 25//15 26//15 20//15
f 20//2 26//2 27//2 21//2
f 21//16 27//16 28//16 22//16
f 22//17 28//17 29//17 23//17
f 23//5 29//5 30//5 24//5
f 24//18 30//18 25//18 19//18
f 25//19 31//19 32//19 26//19
f 26//2 32//2 33//2 27//2
f 27//20 33//20 34//20 28//20
f 28//21 34//21 35//21 29//21
f 29//5 35//5 36//5 30//5
f 30//22 36//22 31//22 25//22
f 31//23 37//23 38//23 32//23
f 32//2 38//2 39//2 33//2
f 33//24 39//24 40//24 34//24
f 34//25 40//25 41//25 35//25
f 35//5 41//5 42//5 36//5
f 36//26 42//26 37//26 31//26
f 37//27 43//27 44//27 38//27
f 38//2 44//2 45//2 39//2
f 39//28 45//28 46//28 40//28
f 40//29 46//29 47//29 41//29
f 41//5 47//5 48//5 42//5
f 42//30 48//30 43//30 37//30
f 43//31 49//31 50//31 44//31
f 44//2 50//2 51//2 45//2
f 45//32 51//32 52//32 46//32
f 46//33 52//33 53//33 47//33
f 47//5 53//5 54//5 48//5
f 48//34 54//34 49//34 43//34
f 49//35 55//35 56//35 50//35
f 50//2 56//2 57//2 51//2
f 51//36 57//36 58//36 52//36
f 52//37 58//37 59//37 53//37
f 53//5 59//5 60//5 54//5
f 54//38 60//38 55//38 49//38
f 55//39 61//39 62//39 56//39
f 56//2 62//2 63//2 57//2
f 57//40 63//40 64//40 58//40
f 58//41 64//41 65//41 59//41
f 59//5 65//5 66//5 60//5
f 60//42 66//42 61//42 55//42
f 61//43 67//43 68//43 62//43
f 62//2 68//2 69//2 63//2
f 63//44 69//44 70//44 64//44
f 64//45 70//45 71//45 65//45
f 65//5 71//5 72//5 66//5
f 66//46 72//46 67//46 61//46
f 67//47 73//47 74//47 68//47
f 68//2 74//2 75//2 69//2
f 69//48 75//48 76//48 70//48
f 70//49 76//49 77//49 71//49
f 71//5 77//5 78//5 72//5
f 72//50 78//50 73//50 67//50
f 73//3 79//3 80//3 74//3
f 74//2 80//2 81//2 75//2
f 75//1 81//1 82//1 76//1
f 76//6 82//6 83//6 77//6
f 77//5 83//5 84//5 78//5
f 78//4 84//4 79//4 73//4
f 79//8 85//8 86//8 80//8
f 80//2 86//2 87//2 81//2
f 81//7 87//7 88//7 82//7
f 82//10 88//10 89//10 83//10
f 83//5 89//5 90//5 84//5
f 84//9 90//9 85//9 79//9
f 85//12 91//12 92//12 86//12
f 86//2 92//2 93//2 87//2
f 87//11 93//11 94//11 88//11
f 88//14 94//14 95//14 89//14
f 89//5 95//5 96//5 90//5
f 90//13 96//13 91//13 85//13
f 91//16 97//16 98//16 92//16
f 92//2 98//2 99//2 93//2
f 93//15 99//15 100//15 94//15
f 94//18 100//18 101//18 95//18
f 95//5 101//5 102//5 96//5
f 96//17 102//17 97//17 91//17
f 97//20 103//20 104//20 98//20
f 98//2 104//2 105//2 99//2
f 99//19 105//19 106//19 100//19
f 100//22 106//22 107//22 101//22
f 101//5 107//5 108//5 102//5
f 102//21 108//21 103//21 97//21
f 103//24 109//24 110//24 104//24
f 104//2 110//2 111//2 105//2
f 105//23 111//23 112//23 106//23
f 106//26 112//26 113//26 107//26
f 107//5 113//5 114//5 108//5
f 108//25 114//25 109//25 103//25
f 109//28 115//28 116//28 110//28
f 110//2 116//2 117//2 111//2
f 111//27 117//27 118//27 112//27
f 112//30 118//30 119//30 113//30
f 113//5 119//5 120//5 114//5
f 114//29 120//29 115//29 109//29
f 115//32 121//32 122//32 116//32
f 116//2 122//2 123//2 117//2
f 117//31 123//31 124//31 118//31
f 118//34 124//34 125//34 119//34
f 119//5 125//5 126//5 120//5
f 120//33 126//33 121//33 115//33
f 121//36 127//36 128//36 122//36
f 122//2 128//2 129//2 123//2
f 123//35 129//35 130//35 124//35
f 124//38 130//38 131//38 125//38
f 125//5 131//5 132//5 126//5
f 126//37 132//37 127//37 121//37
f 127//40 133//40 134//40 128//40
f 128//2 134//2 135//2 129//2
f 129//39 135//39 136//39 130//39
f 130//42 136//42 137//42 131//42
f 131//5 137//5 138//5 132//5
f 132//41 138//41 133//41 127//41
f 133//44 139//44 140//44 134//44
f 134//2 140//2 141//2 135//2
f 135//43 141//43 142//43 136//43
f 136//46 142//46 143//46 137//46
f 137//5 143//5 144//5 138//5
f 138//45 144//45 139//45 133//45
f 139//48 1//48 2//48 140//48
f 140//2 2//2 3//2 141//2
f 141//47 3//47 4//47 142//47
f 142//50 4//50 5//50 143//50
f 143//5 5//5 6//5 144//5
f 144//49 6//49 1//49 139//49
